<mxfile host="app.diagrams.net" modified="2023-10-09T18:57:30.942Z" agent="Mozilla/5.0 (Windows NT 10.0; Win64; x64) AppleWebKit/537.36 (KHTML, like Gecko) Chrome/117.0.0.0 Safari/537.36" etag="50uYIXM0i4LefsJe4Rmn" version="22.0.4" type="github">
  <diagram name="Page-1" id="efa7a0a1-bf9b-a30e-e6df-94a7791c09e9">
    <mxGraphModel dx="1407" dy="2027" grid="1" gridSize="10" guides="1" tooltips="1" connect="1" arrows="1" fold="1" page="1" pageScale="1" pageWidth="826" pageHeight="1169" background="none" math="0" shadow="0">
      <root>
        <mxCell id="0" />
        <mxCell id="1" parent="0" />
        <mxCell id="5H0BJzfYB0tOyBkuScs_-123" value="Vertical Tree Layout" style="swimlane;startSize=20;horizontal=1;childLayout=treeLayout;horizontalTree=0;resizable=0;containerType=tree;fontSize=12;fillColor=#f8cecc;strokeColor=default;fillStyle=auto;gradientColor=none;swimlaneFillColor=default;" vertex="1" parent="1">
          <mxGeometry x="60" y="-584" width="280" height="190" as="geometry" />
        </mxCell>
        <mxCell id="5H0BJzfYB0tOyBkuScs_-124" value="Root" style="whiteSpace=wrap;html=1;" vertex="1" parent="5H0BJzfYB0tOyBkuScs_-123">
          <mxGeometry x="90" y="40" width="100" height="40" as="geometry" />
        </mxCell>
        <mxCell id="5H0BJzfYB0tOyBkuScs_-125" value="Child 1" style="whiteSpace=wrap;html=1;" vertex="1" parent="5H0BJzfYB0tOyBkuScs_-123">
          <mxGeometry x="20" y="130" width="100" height="40" as="geometry" />
        </mxCell>
        <mxCell id="5H0BJzfYB0tOyBkuScs_-126" value="" style="edgeStyle=elbowEdgeStyle;elbow=vertical;html=1;rounded=1;curved=0;sourcePerimeterSpacing=0;targetPerimeterSpacing=0;startSize=6;endSize=6;" edge="1" parent="5H0BJzfYB0tOyBkuScs_-123" source="5H0BJzfYB0tOyBkuScs_-124" target="5H0BJzfYB0tOyBkuScs_-125">
          <mxGeometry relative="1" as="geometry" />
        </mxCell>
        <mxCell id="5H0BJzfYB0tOyBkuScs_-127" value="Child 2" style="whiteSpace=wrap;html=1;" vertex="1" parent="5H0BJzfYB0tOyBkuScs_-123">
          <mxGeometry x="160" y="130" width="100" height="40" as="geometry" />
        </mxCell>
        <mxCell id="5H0BJzfYB0tOyBkuScs_-128" value="" style="edgeStyle=elbowEdgeStyle;elbow=vertical;html=1;rounded=1;curved=0;sourcePerimeterSpacing=0;targetPerimeterSpacing=0;startSize=6;endSize=6;" edge="1" parent="5H0BJzfYB0tOyBkuScs_-123" source="5H0BJzfYB0tOyBkuScs_-124" target="5H0BJzfYB0tOyBkuScs_-127">
          <mxGeometry relative="1" as="geometry" />
        </mxCell>
        <mxCell id="5H0BJzfYB0tOyBkuScs_-129" value="Orgchart" style="swimlane;startSize=20;horizontal=1;containerType=tree;newEdgeStyle={&quot;edgeStyle&quot;:&quot;elbowEdgeStyle&quot;,&quot;startArrow&quot;:&quot;none&quot;,&quot;endArrow&quot;:&quot;none&quot;};fillColor=#f8cecc;strokeColor=#b85450;" vertex="1" parent="1">
          <mxGeometry x="880" y="-540" width="280" height="220" as="geometry">
            <mxRectangle x="770" y="-330" width="90" height="30" as="alternateBounds" />
          </mxGeometry>
        </mxCell>
        <mxCell id="5H0BJzfYB0tOyBkuScs_-130" value="" style="edgeStyle=elbowEdgeStyle;elbow=vertical;sourcePerimeterSpacing=0;targetPerimeterSpacing=0;startArrow=none;endArrow=none;rounded=0;curved=0;" edge="1" parent="5H0BJzfYB0tOyBkuScs_-129" source="5H0BJzfYB0tOyBkuScs_-132" target="5H0BJzfYB0tOyBkuScs_-133">
          <mxGeometry relative="1" as="geometry" />
        </mxCell>
        <mxCell id="5H0BJzfYB0tOyBkuScs_-131" value="" style="edgeStyle=elbowEdgeStyle;elbow=vertical;sourcePerimeterSpacing=0;targetPerimeterSpacing=0;startArrow=none;endArrow=none;rounded=0;curved=0;" edge="1" parent="5H0BJzfYB0tOyBkuScs_-129" source="5H0BJzfYB0tOyBkuScs_-132" target="5H0BJzfYB0tOyBkuScs_-134">
          <mxGeometry relative="1" as="geometry" />
        </mxCell>
        <UserObject label="Organization" treeRoot="1" id="5H0BJzfYB0tOyBkuScs_-132">
          <mxCell style="whiteSpace=wrap;html=1;align=center;treeFolding=1;treeMoving=1;newEdgeStyle={&quot;edgeStyle&quot;:&quot;elbowEdgeStyle&quot;,&quot;startArrow&quot;:&quot;none&quot;,&quot;endArrow&quot;:&quot;none&quot;};" vertex="1" parent="5H0BJzfYB0tOyBkuScs_-129">
            <mxGeometry x="80" y="30" width="120" height="60" as="geometry" />
          </mxCell>
        </UserObject>
        <mxCell id="5H0BJzfYB0tOyBkuScs_-133" value="Division" style="whiteSpace=wrap;html=1;align=center;verticalAlign=middle;treeFolding=1;treeMoving=1;newEdgeStyle={&quot;edgeStyle&quot;:&quot;elbowEdgeStyle&quot;,&quot;startArrow&quot;:&quot;none&quot;,&quot;endArrow&quot;:&quot;none&quot;};" vertex="1" parent="5H0BJzfYB0tOyBkuScs_-129">
          <mxGeometry x="20" y="140" width="100" height="60" as="geometry" />
        </mxCell>
        <mxCell id="5H0BJzfYB0tOyBkuScs_-134" value="Division" style="whiteSpace=wrap;html=1;align=center;verticalAlign=middle;treeFolding=1;treeMoving=1;newEdgeStyle={&quot;edgeStyle&quot;:&quot;elbowEdgeStyle&quot;,&quot;startArrow&quot;:&quot;none&quot;,&quot;endArrow&quot;:&quot;none&quot;};" vertex="1" parent="5H0BJzfYB0tOyBkuScs_-129">
          <mxGeometry x="160" y="140" width="100" height="60" as="geometry" />
        </mxCell>
        <mxCell id="5H0BJzfYB0tOyBkuScs_-147" value="Container" style="swimlane;fillColor=#f8cecc;strokeColor=#b85450;" vertex="1" parent="1">
          <mxGeometry x="480" y="-350" width="280" height="200" as="geometry" />
        </mxCell>
      </root>
    </mxGraphModel>
  </diagram>
</mxfile>
